<svg width="570" height="446" fill="none" xmlns="http://www.w3.org/2000/svg"><path d="M531.42 395.146H45.603v3.505H531.42v-3.505z" fill="#3B3B3B"/><path d="M68.397 395.146h-3.504v-3.504h3.504v3.504zm0-7.009h-3.504v-3.438h3.504v3.438zm0-7.022h-3.504v-3.504h3.504v3.504zm0-7.009h-3.504v-3.504h3.504v3.504zm0-7.009h-3.504v-3.478h3.504v3.478zm0-7.022h-3.504v-3.504h3.504v3.504zm0-7.009h-3.504v-3.504h3.504v3.504zm0-7.022h-3.504v-3.504h3.504v3.504zm0-7.009h-3.504v-3.504h3.504v3.504zm0-7.022h-3.504v-3.504h3.504v3.504zm0-7.009h-3.504v-3.544h3.504v3.544zm0-7.008h-3.504v-3.518h3.504v3.518zm0-7.023h-3.504v-3.504h3.504v3.504zm0-7.008h-3.504v-3.518h3.504v3.518zm0-7.022h-3.504v-3.505h3.504v3.505zm0-7.009h-3.504v-3.505h3.504v3.505zm0-7.022h-3.504v-3.505h3.504v3.505zm0-7.009h-3.504v-3.505h3.504v3.505zm0-7.009h-3.504v-3.518h3.504v3.518zm0-7.022h-3.504v-3.505h3.504v3.505zm0-7.009h-3.504v-3.505h3.504v3.505zm0-7.022h-3.504v-3.505h3.504v3.505zm0-7.009h-3.504v-3.505h3.504v3.505zm0-7.022h-3.504v-3.505h3.504v3.505zm0-7.009h-3.504v-3.505h3.504v3.505zm0-7.009h-3.504v-3.518h3.504v3.518zm0-7.022h-3.504v-3.504h3.504v3.504zm0-7.009h-3.504v-3.504h3.504v3.504zm0-7.022h-3.504v-3.504h3.504v3.504zm0-7.009h-3.504v-3.504h3.504v3.504zm0-7.009h-3.504v-3.517h3.504v3.517zm0-7.022h-3.504v-3.504h3.504v3.504zm0-7.009h-3.504v-3.517h3.504v3.517zm0-7.022h-3.504v-3.504h3.504v3.504zm0-7.009h-3.504v-3.504h3.504v3.504zm0-7.022h-3.504v-3.504h3.504v3.504zm0-7.009h-3.504v-3.504h3.504v3.504zm0-7.022h-3.504v-3.504h3.504v3.504zm0-7.009h-3.504v-3.438h3.504v3.438zm0-7.008h-3.504v-3.518h3.504v3.518zm0-7.023h-3.504v-3.504h3.504v3.504zm0-7.008h-3.504v-3.479h3.504v3.479zm0-7.023h-3.504v-3.504h3.504v3.504zm0-7.008h-3.504v-3.505h3.504v3.505zm0-7.01h-3.504V83h3.504v3.518zm0-7.021h-3.504V75.99h3.504v3.505zm0-7.01h-3.504V68.97h3.504v3.518zm0-7.021h-3.504V61.92h3.504v3.544zm0-7.01h-3.504v-1.804h3.504v1.805zm447.225 336.691h-3.505v-1.752h3.505v1.752zm0-5.27h-3.505v-3.504h3.505v3.504zm0-7.009h-3.505v-3.438h3.505v3.438zm0-7.022h-3.505v-3.504h3.505v3.504zm0-7.009h-3.505v-3.504h3.505v3.504zm0-7.022h-3.505v-3.465h3.505v3.465zm0-7.009h-3.505v-3.504h3.505v3.504zm0-7.008h-3.505v-3.518h3.505v3.518zm0-7.023h-3.505v-3.504h3.505v3.504zm0-7.008h-3.505v-3.518h3.505v3.518zm0-7.023h-3.505v-3.504h3.505v3.504zm0-7.008h-3.505v-3.544h3.505v3.544zm0-7.022h-3.505v-3.505h3.505v3.505zm0-7.009h-3.505v-3.505h3.505v3.505zm0-7.009h-3.505v-3.518h3.505v3.518zm0-7.022h-3.505v-3.505h3.505v3.505zm0-7.009h-3.505v-3.505h3.505v3.505zm0-7.022h-3.505v-3.505h3.505v3.505zm0-7.009h-3.505v-3.505h3.505v3.505zm0-7.022h-3.505v-3.505h3.505v3.505zm0-7.009h-3.505v-3.505h3.505v3.505zm0-7.009h-3.505v-3.518h3.505v3.518zm0-7.022h-3.505v-3.504h3.505v3.504zm0-7.009h-3.505v-3.518h3.505v3.518zm0-7.022h-3.505v-3.504h3.505v3.504zm0-7.009h-3.505v-3.491h3.505v3.491zm0-7.022h-3.505v-3.504h3.505v3.504zm0-7.009h-3.505v-3.504h3.505v3.504zm0-7.009h-3.505v-3.517h3.505v3.517zm0-7.022h-3.505v-3.491h3.505v3.491zm0-7.009h-3.505v-3.504h3.505v3.504zm0-7.022h-3.505v-3.504h3.505v3.504zm0-7.009h-3.505v-3.504h3.505v3.504zm0-7.022h-3.505v-3.491h3.505v3.491zm0-7.009h-3.505v-3.504h3.505v3.504zm0-7.009h-3.505v-3.517h3.505v3.517zm0-7.022h-3.505v-3.504h3.505v3.504zm0-7.008h-3.505v-3.505h3.505v3.505zm0-7.023h-3.505v-3.491h3.505v3.491zm0-7.008h-3.505v-3.439h3.505v3.439zm0-7.022h-3.505v-3.492h3.505v3.492zm0-7.009h-3.505v-3.492h3.505v3.492zm0-7.009h-3.505V98.81h3.505v3.478zm0-7.022h-3.505v-3.492h3.505v3.492zm0-7.01h-3.505v-3.49h3.505v3.49zm0-7.021h-3.505V77.73h3.505v3.505zm0-7.01h-3.505v-3.49h3.505v3.49zm0-7.021h-3.505v-3.491h3.505v3.49zm0-7.01h-3.505v-3.543h3.505v3.544z" fill="#C5CDD8"/><path d="M534.925 309.616H45.603v1.832h489.322v-1.832zm0-84.607H45.603v1.832h489.322v-1.832zm0-84.607H45.603v1.831h489.322v-1.831z" fill="#C5CDD8"/><path d="M403.822 395.146h-3.504v-1.752h3.504v1.752zm0-5.27h-3.504v-3.504h3.504v3.504zm0-7.009h-3.504v-3.438h3.504v3.438zm0-7.022h-3.504v-3.504h3.504v3.504zm0-7.009h-3.504v-3.504h3.504v3.504zm0-7.022h-3.504v-3.465h3.504v3.465zm0-7.009h-3.504v-3.504h3.504v3.504zm0-7.008h-3.504v-3.518h3.504v3.518zm0-7.023h-3.504v-3.504h3.504v3.504zm0-7.008h-3.504v-3.518h3.504v3.518zm0-7.023h-3.504v-3.504h3.504v3.504zm0-7.008h-3.504v-3.544h3.504v3.544zm0-7.022h-3.504v-3.505h3.504v3.505zm0-7.009h-3.504v-3.505h3.504v3.505zm0-7.009h-3.504v-3.518h3.504v3.518zm0-7.022h-3.504v-3.505h3.504v3.505zm0-7.009h-3.504v-3.505h3.504v3.505zm0-7.022h-3.504v-3.505h3.504v3.505zm0-7.009h-3.504v-3.505h3.504v3.505zm0-7.022h-3.504v-3.505h3.504v3.505zm0-7.009h-3.504v-3.505h3.504v3.505zm0-7.009h-3.504v-3.518h3.504v3.518zm0-7.022h-3.504v-3.504h3.504v3.504zm0-7.009h-3.504v-3.518h3.504v3.518zm0-7.022h-3.504v-3.504h3.504v3.504zm0-7.009h-3.504v-3.491h3.504v3.491zm0-7.022h-3.504v-3.504h3.504v3.504zm0-7.009h-3.504v-3.504h3.504v3.504zm0-7.009h-3.504v-3.517h3.504v3.517zm0-7.022h-3.504v-3.491h3.504v3.491zm0-7.009h-3.504v-3.504h3.504v3.504zm0-7.022h-3.504v-3.504h3.504v3.504zm0-7.009h-3.504v-3.504h3.504v3.504zm0-7.022h-3.504v-3.491h3.504v3.491zm0-7.009h-3.504v-3.504h3.504v3.504zm0-7.009h-3.504v-3.517h3.504v3.517zm0-7.022h-3.504v-3.504h3.504v3.504zm0-7.008h-3.504v-3.505h3.504v3.505zm0-7.023h-3.504v-3.491h3.504v3.491zm0-7.008h-3.504v-3.439h3.504v3.439zm0-7.022h-3.504v-3.492h3.504v3.492zm0-7.009h-3.504v-3.492h3.504v3.492zm0-7.009h-3.504V98.81h3.504v3.478zm0-7.022h-3.504v-3.492h3.504v3.492zm0-7.01h-3.504v-3.49h3.504v3.49zm0-7.021h-3.504V77.73h3.504v3.505zm0-7.01h-3.504v-3.49h3.504v3.49zm0-7.021h-3.504v-3.491h3.504v3.49zm0-7.01h-3.504v-3.543h3.504v3.544zM292.01 395.146h-3.452v-1.752h3.504l-.052 1.752zm0-5.27h-3.452v-3.504h3.504l-.052 3.504zm0-7.009h-3.452v-3.438h3.504l-.052 3.438zm0-7.022h-3.452v-3.504h3.504l-.052 3.504zm0-7.009h-3.452v-3.504h3.504l-.052 3.504zm0-7.022h-3.452v-3.465h3.504l-.052 3.465zm0-7.009h-3.452v-3.504h3.504l-.052 3.504zm0-7.008h-3.452v-3.518h3.504l-.052 3.518zm0-7.023h-3.452v-3.504h3.504l-.052 3.504zm0-7.008h-3.452v-3.518h3.504l-.052 3.518zm0-7.023h-3.452v-3.504h3.504l-.052 3.504zm0-7.008h-3.452v-3.544h3.504l-.052 3.544zm0-7.022h-3.452v-3.505h3.504l-.052 3.505zm0-7.009h-3.452v-3.505h3.504l-.052 3.505zm0-7.009h-3.452v-3.518h3.504l-.052 3.518zm0-7.022h-3.452v-3.505h3.504l-.052 3.505zm0-7.009h-3.452v-3.505h3.504l-.052 3.505zm0-7.022h-3.452v-3.505h3.504l-.052 3.505zm0-7.009h-3.452v-3.505h3.504l-.052 3.505zm0-7.022h-3.452v-3.505h3.504l-.052 3.505zm0-7.009h-3.452v-3.505h3.504l-.052 3.505zm0-7.009h-3.452v-3.518h3.504l-.052 3.518zm0-7.022h-3.452v-3.504h3.504l-.052 3.504zm0-7.009h-3.452v-3.518h3.504l-.052 3.518zm0-7.022h-3.452v-3.504h3.504l-.052 3.504zm0-7.009h-3.452v-3.491h3.504l-.052 3.491zm0-7.022h-3.452v-3.504h3.504l-.052 3.504zm0-7.009h-3.452v-3.504h3.504l-.052 3.504zm0-7.009h-3.452v-3.517h3.504l-.052 3.517zm0-7.022h-3.452v-3.491h3.504l-.052 3.491zm0-7.009h-3.452v-3.504h3.504l-.052 3.504zm0-7.022h-3.452v-3.504h3.504l-.052 3.504zm0-7.009h-3.452v-3.504h3.504l-.052 3.504zm0-7.022h-3.452v-3.491h3.504l-.052 3.491zm0-7.009h-3.452v-3.504h3.504l-.052 3.504zm0-7.009h-3.452v-3.517h3.504l-.052 3.517zm0-7.022h-3.452v-3.504h3.504l-.052 3.504zm0-7.008h-3.452v-3.505h3.504l-.052 3.505zm0-7.023h-3.452v-3.491h3.504l-.052 3.491zm0-7.008h-3.452v-3.439h3.504l-.052 3.439zm0-7.022h-3.452v-3.492h3.504l-.052 3.492zm0-7.009h-3.452v-3.492h3.504l-.052 3.492zm0-7.009h-3.452V98.81h3.504l-.052 3.478zm0-7.022h-3.452v-3.492h3.504l-.052 3.492zm0-7.01h-3.452v-3.49h3.504l-.052 3.49zm0-7.021h-3.452V77.73h3.504l-.052 3.505zm0-7.01h-3.452v-3.49h3.504l-.052 3.49zm0-7.021h-3.452v-3.491h3.504l-.052 3.49zm0-7.01h-3.452v-3.543h3.504l-.052 3.544zm-111.8 334.952h-3.518v-1.752h3.518v1.752zm0-5.27h-3.518v-3.504h3.518v3.504zm0-7.009h-3.518v-3.438h3.518v3.438zm0-7.022h-3.518v-3.504h3.518v3.504zm0-7.009h-3.518v-3.504h3.518v3.504zm0-7.022h-3.518v-3.465h3.518v3.465zm0-7.009h-3.518v-3.504h3.518v3.504zm0-7.008h-3.518v-3.518h3.518v3.518zm0-7.023h-3.518v-3.504h3.518v3.504zm0-7.008h-3.518v-3.518h3.518v3.518zm0-7.023h-3.518v-3.504h3.518v3.504zm0-7.008h-3.518v-3.544h3.518v3.544zm0-7.022h-3.518v-3.505h3.518v3.505zm0-7.009h-3.518v-3.505h3.518v3.505zm0-7.009h-3.518v-3.518h3.518v3.518zm0-7.022h-3.518v-3.505h3.518v3.505zm0-7.009h-3.518v-3.505h3.518v3.505zm0-7.022h-3.518v-3.505h3.518v3.505zm0-7.009h-3.518v-3.505h3.518v3.505zm0-7.022h-3.518v-3.505h3.518v3.505zm0-7.009h-3.518v-3.505h3.518v3.505zm0-7.009h-3.518v-3.518h3.518v3.518zm0-7.022h-3.518v-3.504h3.518v3.504zm0-7.009h-3.518v-3.518h3.518v3.518zm0-7.022h-3.518v-3.504h3.518v3.504zm0-7.009h-3.518v-3.491h3.518v3.491zm0-7.022h-3.518v-3.504h3.518v3.504zm0-7.009h-3.518v-3.504h3.518v3.504zm0-7.009h-3.518v-3.517h3.518v3.517zm0-7.022h-3.518v-3.491h3.518v3.491zm0-7.009h-3.518v-3.504h3.518v3.504zm0-7.022h-3.518v-3.504h3.518v3.504zm0-7.009h-3.518v-3.504h3.518v3.504zm0-7.022h-3.518v-3.491h3.518v3.491zm0-7.009h-3.518v-3.504h3.518v3.504zm0-7.009h-3.518v-3.517h3.518v3.517zm0-7.022h-3.518v-3.504h3.518v3.504zm0-7.008h-3.518v-3.505h3.518v3.505zm0-7.023h-3.518v-3.491h3.518v3.491zm0-7.008h-3.518v-3.439h3.518v3.439zm0-7.022h-3.518v-3.492h3.518v3.492zm0-7.009h-3.518v-3.492h3.518v3.492zm0-7.009h-3.518V98.81h3.518v3.478zm0-7.022h-3.518v-3.492h3.518v3.492zm0-7.01h-3.518v-3.49h3.518v3.49zm0-7.021h-3.518V77.73h3.518v3.505zm0-7.01h-3.518v-3.49h3.518v3.49zm0-7.021h-3.518v-3.491h3.518v3.49zm0-7.01h-3.518v-3.543h3.518v3.544z" fill="#C5CDD8"/><path d="M273.893 225.009h-78.925v170.137h78.925V225.009z" fill="#F38704"/><path d="M273.893 341.96h-78.925v53.431h78.925V341.96z" fill="#FFBA45"/><path d="M384.925 156.732H306v237.907h78.925V156.732z" fill="#F38704"/><path d="M384.375 332.961H306v62.337h78.375v-62.337z" fill="#FFBA45"/><path d="M335.057 368.169h1.113v-2.725h2.725v-1.113h-2.725v-2.725h-1.113v2.725h-2.725v1.113h2.725v2.725zm9.407 1.929c1.939 0 3.361-1.432 3.361-3.381 0-1.974-1.372-3.42-3.241-3.42-.686 0-1.353.243-1.77.576h-.06l.358-3.003h4.256v-1.093h-5.29l-.617 5.011 1.154.139c.422-.303 1.143-.522 1.77-.517 1.297.01 2.247.995 2.247 2.327 0 1.307-.915 2.267-2.168 2.267-1.044 0-1.874-.671-1.968-1.591h-1.194c.075 1.551 1.412 2.685 3.162 2.685zm10.526-2.049c0 1.114.696 2.049 1.989 2.049 1.273 0 1.969-.935 1.969-2.049v-.537c0-1.113-.676-2.048-1.969-2.048-1.273 0-1.989.935-1.989 2.048v.537zm-5.071-5.826c0 1.113.696 2.048 1.989 2.048 1.273 0 1.969-.935 1.969-2.048v-.537c0-1.114-.676-2.049-1.969-2.049-1.273 0-1.989.935-1.989 2.049v.537zm.378 7.735h1.134l7-10.181h-1.134l-7 10.181zm5.708-2.446c0-.616.278-1.193.974-1.193.716 0 .955.577.955 1.193v.537c0 .617-.259 1.194-.955 1.194-.716 0-.974-.577-.974-1.194v-.537zm-5.071-5.826c0-.617.278-1.193.974-1.193.716 0 .955.576.955 1.193v.537c0 .616-.259 1.193-.955 1.193-.716 0-.974-.577-.974-1.193v-.537zm-19.877-112.597h1.113v-2.725h2.725v-1.113h-2.725v-2.725h-1.113v2.725h-2.725v1.113h2.725v2.725zm9.805-8.392h-1.233l-2.545 1.69v1.253l2.485-1.651h.06v8.889h1.233v-10.181zm6.19 10.321c2.033 0 3.45-1.189 3.46-2.844-.01-1.288-.87-2.382-1.969-2.585v-.06c.955-.249 1.581-1.183 1.591-2.267-.01-1.551-1.312-2.705-3.082-2.705-1.79 0-3.093 1.154-3.083 2.705-.01 1.084.617 2.018 1.591 2.267v.06c-1.118.203-1.979 1.297-1.969 2.585-.01 1.655 1.407 2.844 3.461 2.844zm0-1.094c-1.397 0-2.257-.716-2.247-1.81-.01-1.148.939-1.969 2.247-1.969 1.287 0 2.237.821 2.247 1.969-.01 1.094-.87 1.81-2.247 1.81zm0-4.833c-1.114 0-1.899-.696-1.89-1.75-.009-1.034.746-1.71 1.89-1.71 1.123 0 1.879.676 1.889 1.71-.01 1.054-.796 1.75-1.889 1.75zm10.556 3.878c0 1.114.696 2.049 1.988 2.049 1.273 0 1.969-.935 1.969-2.049v-.537c0-1.113-.676-2.048-1.969-2.048-1.272 0-1.988.935-1.988 2.048v.537zm-5.071-5.826c0 1.113.696 2.048 1.988 2.048 1.273 0 1.969-.935 1.969-2.048v-.537c0-1.114-.676-2.049-1.969-2.049-1.273 0-1.988.935-1.988 2.049v.537zm.377 7.735h1.134l7-10.181h-1.134l-7 10.181zm5.708-2.446c0-.616.278-1.193.974-1.193.716 0 .955.577.955 1.193v.537c0 .617-.259 1.194-.955 1.194-.716 0-.974-.577-.974-1.194v-.537zm-5.071-5.826c0-.617.278-1.193.974-1.193.716 0 .955.576.955 1.193v.537c0 .616-.259 1.193-.955 1.193-.716 0-.974-.577-.974-1.193v-.537z" fill="#3B3B3B"/><path d="M251.625 95.801c0 9.284-7.527 16.811-16.813 16.811-9.285 0-16.812-7.527-16.812-16.81 0-9.285 7.527-16.811 16.812-16.811 9.286 0 16.813 7.526 16.813 16.81z" stroke="#C4C4C4" stroke-width="2"/><path d="M235.972 91.263h-1.057l-2.182 1.448v1.074l2.131-1.415h.051v7.62h1.057v-8.727z" fill="#3B3B3B"/><path d="M362.625 95.801c0 9.284-7.527 16.811-16.813 16.811-9.285 0-16.812-7.527-16.812-16.81 0-9.285 7.527-16.811 16.812-16.811 9.286 0 16.813 7.526 16.813 16.81z" stroke="#C4C4C4" stroke-width="2"/><path d="M342.903 100.99h5.506v-.938h-4.057v-.068l1.96-2.096c1.5-1.607 1.944-2.357 1.944-3.324 0-1.347-1.091-2.42-2.625-2.42-1.53 0-2.693 1.039-2.693 2.573h1.005c0-.993.644-1.653 1.654-1.653.946 0 1.67.58 1.67 1.5 0 .805-.473 1.402-1.483 2.505l-2.881 3.154v.767z" fill="#3B3B3B"/></svg>