<svg width="30" height="30" fill="none" xmlns="http://www.w3.org/2000/svg"><path d="M19.596 14.647l-.353.354.353.354 9.281 9.28h0c.83.829.83 2.174 0 3.005 0 0 0 0 0 0l-1.237 1.237h0c-.829.83-2.174.83-3.005 0 0 0 0 0 0 0l-9.28-9.28-.354-.354-.354.353-9.28 9.281h0c-.83.83-2.175.83-3.005 0L1.125 27.64h0a2.124 2.124 0 010-3.005l9.28-9.28.354-.354-.354-.354-9.282-9.282h0a2.124 2.124 0 010-3.005s0 0 0 0l1.239-1.237h0a2.124 2.124 0 013.004 0s0 0 0 0l9.281 9.282.354.354.354-.354 9.28-9.28h0a2.124 2.124 0 013.005 0l1.237 1.237h0c.83.828.83 2.174 0 3.004l-9.28 9.281z" stroke="#FFBA45"/></svg>