<svg width="24" height="24" fill="none" xmlns="http://www.w3.org/2000/svg"><path d="M15.606 11.647l-.353.354.353.353 7.425 7.425h0a1.6 1.6 0 010 2.262s0 0 0 0l-.99.99h0a1.6 1.6 0 01-2.262 0s0 0 0 0l-7.425-7.425-.353-.353-.354.353-7.425 7.425h0a1.599 1.599 0 01-2.262 0l-.99-.99h0a1.599 1.599 0 010-2.262l7.425-7.425.353-.353-.353-.354L.969 4.221h0a1.6 1.6 0 010-2.262l.99-.99h.001a1.599 1.599 0 012.262 0s0 0 0 0l7.425 7.426.354.353.353-.353L19.78.97h0a1.599 1.599 0 012.262 0l.99.99h0a1.599 1.599 0 010 2.262l-7.425 7.425z" stroke="#FFBA45"/></svg>