<svg width="50" height="50" fill="none" xmlns="http://www.w3.org/2000/svg"><g clip-path="url(#clip0)"><path d="M11.719 25a13.2 13.2 0 011.868-6.785V9.787H5.159C1.813 14.13 0 19.426 0 25s1.813 10.869 5.159 15.213h8.428v-8.428A13.2 13.2 0 0111.719 25z" fill="#FBBD00"/><path d="M25 38.281l-5.86 5.86L25 50c5.574 0 10.869-1.813 15.213-5.159v-8.42h-8.42A13.28 13.28 0 0125 38.282z" fill="#0F9D58"/><path d="M13.587 31.785l-8.428 8.429c.662.86 1.383 1.684 2.163 2.464C12.044 47.4 18.322 50 25 50V38.282c-4.846 0-9.093-2.61-11.413-6.497z" fill="#31AA52"/><path d="M50 25c0-1.521-.138-3.045-.41-4.53l-.22-1.2H25v11.718h11.86a13.22 13.22 0 01-5.066 5.434l8.42 8.42a25.393 25.393 0 002.464-2.165A24.836 24.836 0 0050 25z" fill="#3C79E6"/><path d="M34.391 15.609l1.036 1.035 8.287-8.286-1.036-1.036A24.836 24.836 0 0025 0l-5.86 5.86L25 11.718c3.547 0 6.883 1.381 9.391 3.89z" fill="#CF2D48"/><path d="M25 11.719V0C18.322 0 12.044 2.6 7.322 7.322c-.78.78-1.501 1.604-2.164 2.465l8.429 8.428c2.32-3.887 6.567-6.496 11.413-6.496z" fill="#EB4132"/></g><defs><clipPath id="clip0"><path fill="#fff" d="M0 0h50v50H0z"/></clipPath></defs></svg>