<svg width="50" height="50" fill="none" xmlns="http://www.w3.org/2000/svg"><path d="M50 0H0v50h50V0z" fill="#61A8DE"/><path d="M39.37 11.037L5.935 24.067c-1.083.422-1.018 1.976.097 2.305l8.496 2.51 3.171 10.06a1.459 1.459 0 002.434.583l4.393-4.485 8.62 6.326a1.799 1.799 0 002.824-1.081l5.708-27.293c.28-1.337-1.035-2.45-2.308-1.955zm-4.192 6.057l-15.53 13.734a.834.834 0 00-.277.532l-.598 5.315c-.02.174-.262.197-.314.03L16 28.778a.835.835 0 01.357-.956l18.34-11.375c.422-.262.854.319.482.647z" fill="#fff"/></svg>