<svg width="50" height="50" fill="none" xmlns="http://www.w3.org/2000/svg"><path d="M50 0H0v50h50V0z" fill="#1BD741"/><path d="M7.515 42.504l2.449-8.698a17.409 17.409 0 01-2.404-8.848c0-9.629 7.833-17.462 17.463-17.462 9.629 0 17.462 7.833 17.462 17.462 0 9.63-7.833 17.463-17.462 17.463-3 0-5.939-.768-8.538-2.226l-8.97 2.31zm9.429-5.486l.534.326a14.472 14.472 0 007.544 2.115c7.996 0 14.501-6.505 14.501-14.5 0-7.996-6.505-14.501-14.5-14.501-7.996 0-14.501 6.505-14.501 14.5 0 2.786.792 5.492 2.29 7.824l.36.56-1.41 5.01 5.182-1.334z" fill="#fff"/><path d="M20.117 16.831l-1.133-.062a1.37 1.37 0 00-.974.334c-.55.477-1.428 1.399-1.698 2.6-.402 1.793.22 3.987 1.829 6.181 1.61 2.194 4.608 5.705 9.91 7.205 1.71.483 3.054.157 4.09-.506a3.658 3.658 0 001.593-2.322l.18-.845a.587.587 0 00-.328-.657l-3.83-1.765a.587.587 0 00-.71.175l-1.503 1.949a.43.43 0 01-.484.144c-1.03-.362-4.478-1.806-6.37-5.452a.434.434 0 01.054-.484l1.437-1.663a.587.587 0 00.096-.614l-1.651-3.862a.587.587 0 00-.508-.356z" fill="#fff"/></svg>