<svg width="186" height="51" fill="none" xmlns="http://www.w3.org/2000/svg"><path d="M103.34 36h1.644l4.464-16.581c.341-1.258.624-2.458 1.007-4.125h.17c-.085 1.497-.17 2.995-.17 4.421v20.876h2.012V10.789h-2.352l-5.102 19.04a41.694 41.694 0 00-.709 3.46h-.128a26.51 26.51 0 00-.623-3.46l-5.06-19.04H96.07V40.59h1.842V19.715a74.22 74.22 0 00-.127-4.42h.127c.255 1.37.581 2.711 1.007 4.25L103.34 36zm17.985 3.419c-2.013 0-3.302-1.71-3.302-4.661 0-3.673 1.672-5.255 5.144-5.255h2.253v5.791c-.751 2.246-2.125 4.125-4.095 4.125zm4.676 1.172h1.8c-.241-.805-.453-2.43-.453-3.884V25.252c0-4.167-1.97-6.088-5.442-6.088-2.381 0-4.139 1.045-4.975 2.133l.553 1.864c.992-1.454 2.622-2.288 4.422-2.288 2.31 0 3.514 1.384 3.514 4.59v2.628h-2.296c-4.563 0-7.029 2.33-7.029 6.822 0 3.842 1.97 6.087 4.804 6.087 2.098 0 3.6-1.242 4.606-3.248.128 1.497.34 2.288.496 2.839zm11.706-1.172c-1.87 0-3.047-.834-3.883-2.543V25.125c.921-2.246 2.509-4.252 4.394-4.252 2.423 0 3.925 3.249 3.925 8.757 0 6.625-1.757 9.789-4.436 9.789zm-.113 1.54c3.926 0 6.519-3.786 6.519-11.498 0-6.088-2.055-10.297-5.569-10.297-2.339 0-3.884 1.879-4.805 3.884l-.17-3.46h-1.715v27.5h1.97v-7.966c.794 1.045 2.169 1.836 3.77 1.836zm12.245-11.244l7.312 10.876h2.169l-7.441-11.257 6.945-9.746h-1.928l-7.057 9.873v-9.873h-1.97v21.003h1.97V29.715zm12.287.706h9.538c.666-7.457-1.673-11.257-5.315-11.257-3.557 0-6.151 4.04-6.151 10.918 0 6.879 2.055 10.918 6.534 10.918 3.344 0 4.932-2.372 4.932-2.372l-.638-1.582s-1.46 2.245-4.252 2.245c-3.061 0-4.563-3.121-4.648-8.87zm4.223-9.632c2.14 0 3.812 2.5 3.472 8.093h-7.653c.17-5.254 1.97-8.093 4.181-8.093zm18.82.423v-1.624h-11.706v1.624h4.89v19.379h1.955V21.212h4.861z" fill="#3B3B3B"/><path d="M12.237 28.164v11.427h3.193V9.789h-4.768c-4.684 0-8.623 3.121-8.623 9.378 0 4.463 1.73 6.879 4.347 8.206L.83 39.591h3.7l5.049-11.427h2.658zm0-2.67h-1.702c-2.77 0-5.063-1.539-5.063-6.327 0-4.958 2.49-6.667 5.063-6.667h1.702v12.995z" fill="red"/><path d="M47.472 36.921h-1.66V18.588h-9.706v1.793c0 5.58-.21 12.077-2.123 16.54h-1.28v6.794H35.6V39.59h8.96v4.125h2.912V36.92zm14.065 1.243l-.745-2.5c-.83.593-2.293 1.426-4.107 1.426-2.574 0-3.91-2.5-3.91-7.26h8.72v-1.793c0-7.119-2.278-9.746-5.767-9.746-4.445 0-6.315 4.915-6.315 11.667 0 6.455 2.658 9.915 6.976 9.915 2.082 0 3.812-.664 5.148-1.71zM27.64 18.588V27.5h-4.81v-8.912h-3.25V39.59h3.25v-9.42h4.81v9.42h3.193V18.588H27.64zM73.564 39.59h3.53l-5.936-11.13 5.19-9.872h-3.277L68.05 28.29v-9.703h-3.235V39.59h3.235V29.124l5.514 10.466zm11.125.283c1.913 0 3.236-.621 4.36-1.582l-.745-2.415c-.745.664-1.955 1.285-3.53 1.285-2.616 0-3.854-2.994-3.854-8.248 0-5.283 1.645-7.91 3.98-7.91 1.323 0 2.574.706 3.447 1.455l.45-3.08c-.915-.593-1.998-1.087-3.854-1.087-4.895 0-7.427 4.21-7.427 10.791 0 7.175 2.686 10.79 7.173 10.79zM42.62 36.92h-5.57c1.744-4.463 1.955-10.918 1.955-15.339v-.367h3.615V36.92zm13.11-15.96c1.87 0 2.447 2.627 2.447 6.2h-5.36c.212-3.743.915-6.2 2.912-6.2z" fill="#3B3B3B"/></svg>