<svg width="166" height="52" fill="none" xmlns="http://www.w3.org/2000/svg"><path d="M12.237 28.164v11.427h3.193V9.789h-4.768c-4.684 0-8.623 3.121-8.623 9.378 0 4.463 1.73 6.879 4.347 8.206L.83 39.591h3.7l5.049-11.427h2.658zm0-2.67h-1.702c-2.77 0-5.063-1.539-5.063-6.327 0-4.958 2.49-6.667 5.063-6.667h1.702v12.995z" fill="red"/><path d="M47.472 36.921h-1.66V18.588h-9.706v1.793c0 5.58-.21 12.077-2.123 16.54h-1.28v6.794H35.6V39.59h8.96v4.125h2.912V36.92zm14.065 1.243l-.745-2.5c-.83.593-2.293 1.426-4.107 1.426-2.574 0-3.91-2.5-3.91-7.26h8.72v-1.793c0-7.119-2.278-9.746-5.767-9.746-4.445 0-6.315 4.915-6.315 11.667 0 6.455 2.658 9.915 6.976 9.915 2.082 0 3.812-.664 5.148-1.71zM27.64 18.588V27.5h-4.81v-8.912h-3.25V39.59h3.25v-9.42h4.81v9.42h3.193V18.588H27.64zM73.564 39.59h3.53l-5.936-11.13 5.19-9.872h-3.277L68.05 28.29v-9.703h-3.235V39.59h3.235V29.124l5.514 10.466zm11.125.283c1.913 0 3.236-.621 4.36-1.582l-.745-2.415c-.745.664-1.955 1.285-3.53 1.285-2.616 0-3.854-2.994-3.854-8.248 0-5.283 1.645-7.91 3.98-7.91 1.323 0 2.574.706 3.447 1.455l.45-3.08c-.915-.593-1.998-1.087-3.854-1.087-4.895 0-7.427 4.21-7.427 10.791 0 7.175 2.686 10.79 7.173 10.79zM42.62 36.92h-5.57c1.744-4.463 1.955-10.918 1.955-15.339v-.367h3.615V36.92zm13.11-15.96c1.87 0 2.447 2.627 2.447 6.2h-5.36c.212-3.743.915-6.2 2.912-6.2zm53.487 18.921h-6.76c.812-1.384 1.305-4.336 1.572-8.8.247-4.293.39-10.041.483-17.584h4.705v26.384zm1.818 6.667h1.181v-6.667h-1.489V11.788h-7.571c-.092 8.291-.185 14.873-.493 19.294-.298 4.251-.812 7.585-1.88 8.8h-.627v6.666h1.182l.205-4.958h9.276l.216 4.958zm10.477-4.958h1.367V20.587h-1.243l-4.972 14.746c-.298.918-.606 1.836-.812 2.797h-.092c.062-.918.123-1.836.123-2.966V20.587h-1.335V41.59h1.212l4.972-14.802c.328-.918.606-1.794.811-2.698h.093c-.062.862-.124 1.78-.124 2.868V41.59zm9.03-1.172c-1.356 0-2.209-.833-2.815-2.542V26.124c.668-2.245 1.818-4.251 3.184-4.251 1.757 0 2.846 3.248 2.846 8.757 0 6.624-1.274 9.788-3.215 9.788zm-.082 1.54c2.845 0 4.725-3.786 4.725-11.498 0-6.087-1.49-10.296-4.037-10.296-1.695 0-2.815 1.878-3.483 3.884l-.123-3.46h-1.243v27.5h1.428V40.12c.575 1.046 1.572 1.837 2.733 1.837zm8.053-10.537h6.913c.483-7.458-1.212-11.257-3.852-11.257-2.578 0-4.448 4.04-4.448 10.918 0 6.878 1.479 10.918 4.725 10.918 2.425 0 3.575-2.373 3.575-2.373l-.452-1.582s-1.068 2.246-3.092 2.246c-2.219 0-3.307-3.122-3.369-8.87zm3.061-9.633c1.551 0 2.763 2.5 2.517 8.093h-5.547c.123-5.254 1.428-8.093 3.03-8.093zm7.971 8.927l5.301 10.875h1.582l-5.393-11.257 5.023-9.745h-1.387l-5.126 9.872v-9.873h-1.428V41.59h1.428V30.715zm15.85-8.503v-1.625h-8.485v1.625h3.544V41.59h1.428V22.212h3.513z" fill="#3B3B3B"/></svg>