<svg width="92" height="121" fill="none" xmlns="http://www.w3.org/2000/svg"><path d="M62.145 76.332l-3-.011v.02l3-.009zM45.099 59.678h-3v2.669l2.652.31.348-2.98zm0-.569l-.426-2.97-2.574.37v2.6h3zm14.347-15.02l-3-.01v.022l3-.013zM5.895 45.294l-3-.032-.033 3.032h3.033v-3zm16.797 0v3h2.915l.084-2.914-3-.086zm19.815-.07l-3-.023v.044l3-.022zm-17.969 8.522v-3h-3v3h3zm0 12.5h-3v3h3v-3zm19.141 8.736l-3-.042v.083l3-.041zm-21.555.64l2.998-.112-.107-2.889h-2.891v3zm-17.685 0v-3H1.406l.033 3.032 3-.033zm28.587 25.371c9.023 0 16.98-2.385 22.756-6.683 5.824-4.335 9.384-10.605 9.363-17.987l-6 .017c.015 5.26-2.463 9.82-6.945 13.156-4.531 3.372-11.153 5.497-19.174 5.497v6zm32.119-24.65c.02-5.167-1.68-9.802-5.174-13.317-3.46-3.482-8.429-5.616-14.523-6.33l-.697 5.96c5.127.6 8.7 2.32 10.965 4.6 2.232 2.246 3.444 5.282 3.429 9.063l6 .024zM48.099 59.678v-.569h-6v.569h6zm-2.573 2.401c9.545-1.37 16.963-8.009 16.92-18.004l-6 .026c.028 6.34-4.486 10.993-11.773 12.039l.852 5.939zm16.92-17.982c.042-14.107-12.682-23.819-29.278-23.819v6c14.582 0 23.307 8.186 23.278 17.801l6 .018zM33.168 20.278c-16.732 0-30.107 9.867-30.273 24.985l6 .065c.118-10.734 9.612-19.05 24.273-19.05v-6zM5.895 48.295h16.797v-6H5.895v6zm19.796-2.914c.079-2.775 2.598-5.395 7.477-5.395v-6c-6.84 0-13.27 4.056-13.475 11.224l5.997.171zm7.477-5.395c2.19 0 3.786.658 4.787 1.543.97.857 1.564 2.078 1.552 3.673l6 .044c.024-3.27-1.264-6.167-3.579-8.213-2.284-2.019-5.376-3.047-8.76-3.047v6zm6.34 5.26c.01 1.54-.632 2.807-1.86 3.766-1.284 1.002-3.323 1.735-6.043 1.735v6c3.744 0 7.173-1.006 9.734-3.005 2.616-2.042 4.193-5.036 4.168-8.539l-6 .043zm-7.903 5.501h-7.067v6h7.067v-6zm-10.067 3v12.5h6v-12.5h-6zm3 15.5h7.067v-6h-7.067v6zm7.067 0c3.218 0 5.582.797 7.047 1.87 1.4 1.026 2.048 2.327 2.027 3.824l6 .084c.05-3.616-1.663-6.683-4.48-8.748-2.752-2.015-6.461-3.03-10.594-3.03v6zm9.074 5.777c.023 1.634-.635 2.96-1.826 3.94-1.237 1.017-3.185 1.755-5.756 1.755v6c3.679 0 7.057-1.056 9.567-3.12 2.554-2.1 4.063-5.142 4.015-8.657l-6 .082zm-7.582 5.695c-5.398 0-7.883-2.718-7.976-5.208l-5.995.222c.262 7.099 6.939 10.986 13.97 10.986v-6zm-10.973-8.097H4.439v6h17.685v-6zM1.439 75.655c.167 15.397 14.014 25.339 31.587 25.339v-6c-15.667 0-25.47-8.523-25.587-19.404l-6 .065z" fill="#FFBA45"/><path d="M81.555 60.273a9.06 9.06 0 00-9.062 9.062 9.02 9.02 0 002.356 6.093c-.349.727-.922 1.628-1.844 2.079-.307.153-.235.614.103.665 1.013.164 2.468-.02 3.83-1.044a9.035 9.035 0 004.607 1.26 9.024 9.024 0 006.4-2.653l-6.4-6.4v-9.062h.01z" fill="#3B3B3B"/><path d="M84.832 70.564l7.107-2.887a10.612 10.612 0 00-.164-.994l-7.69 3.134.747.747zm6.677-4.833a7.718 7.718 0 00-.369-.911l-8.171 3.317v.533l.368.368 8.172-3.307zm-1.424-2.601l-7.106 2.888v1.065l7.69-3.134a9.761 9.761 0 00-.584-.819zm-1.495-1.515l-5.601 2.283v1.065l6.42-2.611a7.947 7.947 0 00-.819-.737zm-2.11-1.26L83 61.768v1.065l4.628-1.884a8.124 8.124 0 00-1.147-.594zm-3.47-.706v1.065l2.027-.82a8.33 8.33 0 00-2.028-.245zM89.317 75.1a9.018 9.018 0 001.27-1.577l-2.017.82.747.757zm-1.495-1.515l3.471-1.413c.164-.4.308-.81.42-1.229l-4.638 1.884.747.758zM92 68.71l-6.42 2.612.747.758 5.601-2.273c.041-.349.072-.707.072-1.076v-.02zM72.299 87.552c-4.26-1.629-6.81-3.287-6.81-3.287l-3.276 10.372-.45 1.403-1.465-4.167c3.38-4.71-.256-4.936-.88-4.936h-.041c-.625 0-4.26.225-.881 4.936l-1.464 4.167-.45-1.403-3.278-10.372s-2.55 1.659-6.809 3.287c-4.69 1.7-4.393 5.56-4.495 12.799h34.794c-.092-7.24.195-11.1-4.495-12.8z" fill="#3B3B3B"/><path d="M52.014 77.68c.38 2.438 2.253 5.54 5.345 6.626 1.27.45 2.663.45 3.922-.01 3.041-1.096 4.987-4.189 5.355-6.615.41-.031.953-.604 1.526-2.652.788-2.806-.051-3.216-.758-3.154.133-.39.236-.768.308-1.157 1.208-7.26-2.366-7.516-2.366-7.516s-.594-1.137-2.15-1.997c-1.044-.614-2.499-1.096-4.424-.932a6.551 6.551 0 00-1.76.338 7.512 7.512 0 00-1.936.994 10.489 10.489 0 00-1.997 1.648c-.942.963-1.792 2.222-2.15 3.778-.307 1.168-.236 2.386.02 3.697.072.379.174.768.308 1.157-.717-.072-1.557.348-.758 3.154.573 2.027 1.106 2.611 1.515 2.642z" fill="#3B3B3B"/></svg>