<svg width="88" height="121" fill="none" xmlns="http://www.w3.org/2000/svg"><path d="M38.992 24.273h3v-3h-3v3zm-16.3 0v-3h-.857l-.727.452 1.584 2.548zM4.759 35.423l-1.585-2.547-1.415.88v1.667h3zm0 15.2h-3v5.35l4.564-2.791-1.564-2.56zm16.264-9.944v-3h-.845l-.72.44 1.565 2.56zm.426 0h3v-3h-3v3zm0 56.321h-3v3h3v-3zm17.543 0v3h3v-3h-3zm0-75.727h-16.3v6h16.3v-6zm-17.884.452L3.174 32.875l3.169 5.096 17.933-11.15-3.168-5.096zM1.758 35.423v15.2h6v-15.2h-6zm4.565 17.759l16.264-9.944-3.13-5.119-16.263 9.944 3.13 5.119zm14.7-9.503h.426v-6h-.426v6zm-2.574-3V97h6V40.679h-6zm3 59.321h17.543v-6H21.449v6zm20.543-3V24.273h-6V97h6z" fill="#FFBA45"/><path d="M52.527 82.766c1.405 0 2.764-.091 4.049-.26V68.419a31.168 31.168 0 00-4.049-.26C44.504 68.16 38 71.11 38 74.748v1.429c0 3.638 6.504 6.589 14.527 6.589zm0 7.355c1.405 0 2.764-.09 4.049-.259v-4.13c-1.286.17-2.643.262-4.049.262-7.003 0-12.848-2.248-14.221-5.24-.2.436-.306.887-.306 1.35v1.429c0 3.639 6.504 6.588 14.527 6.588zm4.048 3.289v-.321c-1.285.169-2.643.26-4.048.26-7.003 0-12.849-2.247-14.221-5.239-.2.436-.306.887-.306 1.35v1.428c0 3.64 6.504 6.59 14.527 6.59a30.82 30.82 0 004.59-.337 5.198 5.198 0 01-.541-2.303V93.41zM73.473 57c-8.023 0-14.527 2.95-14.527 6.589v1.429c0 3.639 6.504 6.588 14.527 6.588S88 68.656 88 65.018v-1.43C88 59.95 81.496 57 73.473 57z" fill="#3B3B3B"/><path d="M73.473 74.835c-7.003 0-12.848-2.248-14.221-5.24-.2.436-.306.887-.306 1.35v1.429c0 3.639 6.504 6.588 14.527 6.588S88 76.012 88 72.374v-1.43c0-.462-.106-.913-.305-1.349-1.373 2.992-7.219 5.24-14.222 5.24z" fill="#3B3B3B"/><path d="M73.473 82.19c-7.003 0-12.848-2.247-14.221-5.239-.2.436-.306.887-.306 1.35v1.429c0 3.639 6.504 6.588 14.527 6.588S88 83.368 88 79.73V78.3c0-.462-.106-.913-.305-1.349-1.373 2.992-7.219 5.24-14.222 5.24z" fill="#3B3B3B"/><path d="M73.473 89.944c-7.003 0-12.848-2.248-14.221-5.24-.2.436-.306.887-.306 1.35v1.429c0 3.639 6.504 6.589 14.527 6.589S88 91.122 88 87.482v-1.428c0-.463-.106-.914-.305-1.35-1.373 2.992-7.219 5.24-14.222 5.24z" fill="#3B3B3B"/><path d="M73.473 97.3c-7.003 0-12.848-2.248-14.221-5.24-.2.436-.306.888-.306 1.35v1.429c0 3.639 6.504 6.588 14.527 6.588S88 98.477 88 94.839v-1.43c0-.462-.106-.913-.305-1.349-1.373 2.992-7.219 5.24-14.222 5.24z" fill="#3B3B3B"/></svg>