<svg width="88" height="121" fill="none" xmlns="http://www.w3.org/2000/svg"><path d="M5.362 97h-3v3h3v-3zm53.835 0v3h3v-3h-3zm0-14.169h3v-3h-3v3zm-29.474 0h-3v3h3v-3zm0-.462l-2.034-2.205-.966.891v1.314h3zm8.7-8.025l-1.97-2.262-.033.028-.03.029 2.033 2.205zM4.297 47.355l-3 .007.007 2.993h2.993v-3zm16.655 0v3h3v-3h-3zm10.937 13.779l1.976 2.257.015-.013.015-.013-2.006-2.232zM5.362 84.358l-1.976-2.257-1.024.896v1.361h3zm0 15.642h53.835v-6H5.362v6zm56.835-3V82.831h-6V97h6zm-3-17.169H29.723v6h29.474v-6zm-26.474 3v-.462h-6v.462h6zm-.966 1.743l8.7-8.025-4.068-4.41-8.7 8.025 4.068 4.41zm8.637-7.969C56.195 62.835 61.31 55.05 61.31 45.26h-6c0 6.9-3.123 13.107-18.858 26.822l3.943 4.523zM61.31 45.26c0-7.439-3.067-13.794-8.514-18.23-5.394-4.394-12.918-6.752-21.688-6.752v6c7.742 0 13.82 2.082 17.899 5.403 4.025 3.279 6.303 7.914 6.303 13.579h6zM31.108 20.278c-8.605 0-16.08 2.483-21.443 7.242-5.401 4.794-8.388 11.664-8.368 19.842l6-.014c-.016-6.63 2.36-11.798 6.351-15.34 4.03-3.578 9.978-5.73 17.46-5.73v-6zM4.297 50.355h16.655v-6H4.297v6zm19.655-3c0-2.66.806-4.43 1.902-5.53 1.1-1.101 2.8-1.84 5.183-1.84v-6c-3.654 0-6.996 1.163-9.43 3.603-2.438 2.444-3.655 5.858-3.655 9.767h6zm7.085-7.37c2.356 0 4.144.722 5.31 1.791 1.136 1.042 1.917 2.625 1.917 4.869h6c0-3.757-1.367-7.004-3.862-9.291-2.465-2.26-5.79-3.368-9.365-3.368v6zm7.227 6.66c0 3.923-2.285 6.779-8.38 12.257l4.01 4.463c5.837-5.246 10.37-9.777 10.37-16.72h-6zm-8.35 12.231L3.385 82.101l3.952 4.514 26.527-23.224-3.952-4.515zM2.361 84.358V97h6V84.358h-6z" fill="#FFBA45"/><g clip-path="url(#clip0)" fill="#3B3B3B"><path d="M41.39 92.224v8.105c0 .493.4.904.904.904h6.266a.906.906 0 00.904-.904V86.071l-4.55 4.55a5.52 5.52 0 01-3.524 1.603zm11.197-6.256v14.361c0 .493.4.904.904.904h6.266a.906.906 0 00.904-.904v-8.454a5.462 5.462 0 01-3.77-1.603l-4.304-4.304zm11.197 5.013v9.348c0 .493.4.904.904.904h6.266a.906.906 0 00.904-.904V83.082l-7.18 7.18a5.381 5.381 0 01-.894.72zM82.448 72.48l-7.467 7.469v20.38c0 .493.4.904.903.904h6.267a.906.906 0 00.904-.904V73.046c-.206-.175-.36-.33-.473-.432l-.133-.133z"/><path d="M87.575 59.25c-.298-.319-.75-.483-1.326-.483h-.164c-2.917.133-5.824.277-8.742.41-.39.021-.924.042-1.346.463a1.532 1.532 0 00-.318.473c-.431.934.175 1.54.462 1.828l.73.74c.503.513 1.017 1.027 1.53 1.53L60.774 81.85l-7.92-7.92a2.518 2.518 0 00-3.565 0l-10.55 10.54a2.517 2.517 0 000 3.564l.473.472a2.518 2.518 0 003.565 0l8.29-8.29 7.92 7.92c.472.473 1.109.74 1.787.74.678 0 1.304-.267 1.787-.74L82.45 68.249l2.25 2.24c.266.267.636.637 1.201.637.236 0 .473-.062.72-.195a1.96 1.96 0 00.43-.319c.442-.442.525-1.007.545-1.448.082-1.89.175-3.78.267-5.681l.134-2.846c.03-.595-.103-1.058-.421-1.386z"/></g><defs><clipPath id="clip0"><path fill="#fff" transform="translate(38 55)" d="M0 0h50v50H0z"/></clipPath></defs></svg>