<svg width="220" height="237" fill="none" xmlns="http://www.w3.org/2000/svg"><g clip-path="url(#clip0)"><path d="M45.346 215.422a109.235 109.235 0 0064.652 21.078V126.149l-64.653 89.273zm64.652-199.629a109.267 109.267 0 00-64.653 21.078l64.653 89.278V15.793z" fill="#E8E8EA"/><path d="M214.635 92.041a110.522 110.522 0 00-39.98-55.17l-64.658 89.278 104.638-34.108z" fill="#FFBA45"/><path d="M5.365 92.041a111.109 111.109 0 000 68.216l104.632-34.108L5.365 92.041z" fill="#E8E8EA"/><path d="M214.635 160.257l-104.638-34.108 64.658 89.273a110.53 110.53 0 0039.98-55.165z" fill="#E8E8EA"/><path d="M179.902 21.078A109.236 109.236 0 00115.25 0v110.351l64.652-89.273z" fill="#F38704"/><path d="M45.345 36.87a110.522 110.522 0 00-39.98 55.171l104.632 34.108-64.652-89.278zM5.365 160.257a110.53 110.53 0 0039.98 55.165l64.652-89.273L5.365 160.257zM109.997 236.5a109.24 109.24 0 0064.658-21.078l-64.658-89.273V236.5z" fill="#E8E8EA"/><path d="M214.635 160.257a111.108 111.108 0 000-68.216l-104.638 34.108 104.638 34.108z" fill="#FFBA45"/><path d="M163.205 111.667h7.34v-1.25h-5.409v-.091l2.614-2.796c2-2.142 2.591-3.142 2.591-4.432 0-1.795-1.455-3.227-3.5-3.227-2.04 0-3.591 1.386-3.591 3.432h1.341c0-1.324.858-2.205 2.204-2.205 1.262 0 2.228.773 2.228 2 0 1.074-.631 1.87-1.978 3.341l-3.84 4.205v1.023zm13.323.159c2.216 0 3.841-1.637 3.841-3.864 0-2.256-1.568-3.909-3.704-3.909-.784 0-1.546.278-2.023.659h-.068l.409-3.432h4.864v-1.25h-6.046l-.704 5.727 1.318.16c.483-.347 1.307-.597 2.023-.591 1.482.011 2.568 1.136 2.568 2.659 0 1.494-1.046 2.591-2.478 2.591-1.193 0-2.142-.767-2.25-1.819h-1.363c.085 1.773 1.613 3.069 3.613 3.069zm12.03-2.341c0 1.272.796 2.341 2.273 2.341 1.455 0 2.25-1.069 2.25-2.341v-.614c0-1.273-.773-2.341-2.25-2.341-1.455 0-2.273 1.068-2.273 2.341v.614zm-5.795-6.659c0 1.272.795 2.341 2.273 2.341 1.454 0 2.25-1.069 2.25-2.341v-.614c0-1.273-.773-2.341-2.25-2.341-1.455 0-2.273 1.068-2.273 2.341v.614zm.432 8.841h1.295l8-11.637h-1.295l-8 11.637zm6.522-2.796c0-.704.319-1.364 1.114-1.364.818 0 1.091.66 1.091 1.364v.614c0 .704-.296 1.363-1.091 1.363-.818 0-1.114-.659-1.114-1.363v-.614zm-5.795-6.659c0-.705.318-1.364 1.114-1.364.818 0 1.09.659 1.09 1.364v.614c0 .704-.295 1.363-1.09 1.363-.819 0-1.114-.659-1.114-1.363v-.614zM130.871 30h7.341v-1.25h-5.409v-.09l2.614-2.796c2-2.142 2.591-3.142 2.591-4.432 0-1.796-1.455-3.227-3.5-3.227-2.04 0-3.591 1.386-3.591 3.431h1.341c0-1.323.858-2.204 2.204-2.204 1.262 0 2.227.773 2.227 2 0 1.074-.63 1.87-1.977 3.34l-3.841 4.205V30zm15.62-2.182c0 1.273.795 2.341 2.272 2.341 1.455 0 2.25-1.068 2.25-2.34v-.614c0-1.273-.772-2.341-2.25-2.341-1.454 0-2.272 1.068-2.272 2.34v.614zm-5.796-6.659c0 1.273.796 2.341 2.273 2.341 1.454 0 2.25-1.068 2.25-2.34v-.614c0-1.273-.773-2.341-2.25-2.341-1.455 0-2.273 1.068-2.273 2.34v.614zm.432 8.841h1.295l8-11.636h-1.295l-8 11.636zm6.523-2.796c0-.704.318-1.363 1.113-1.363.819 0 1.091.659 1.091 1.363v.614c0 .705-.295 1.364-1.091 1.364-.818 0-1.113-.66-1.113-1.364v-.614zm-5.796-6.659c0-.704.318-1.363 1.114-1.363.818 0 1.091.659 1.091 1.364v.613c0 .705-.296 1.364-1.091 1.364-.818 0-1.114-.66-1.114-1.364v-.613zM53.818 152v-11.636h-3.932c-2.727 0-3.954 1.511-3.954 3.568 0 1.545.693 2.756 2.176 3.261L45.478 152h1.636l2.454-4.551c.097.006.193.006.296.006h2.545V152h1.41zm-1.409-5.818h-2.5c-1.864 0-2.59-.852-2.59-2.25 0-1.398.726-2.318 2.613-2.318h2.477v4.568zm5.394-2.909h-1.341V152h1.34v-3.727h4.182V152h1.341v-8.727h-1.34v3.75h-4.182v-3.75zm7.04 11.227h1.34V152h6.455v2.5h1.34v-3.75h-1.34v-7.477h-5.546l-.295 3.454c-.21 2.443-.523 3.284-1.227 4.023h-.728v3.75zm2.25-3.75c.613-.807.835-2.199 1.022-4.023l.227-2.204h2.955v6.227h-4.205zm12.325 1.432c1.772 0 3.068-.887 3.477-2.205l-1.296-.363c-.34.909-1.13 1.363-2.181 1.363-1.574 0-2.66-1.017-2.722-2.886h6.335v-.568c0-3.25-1.932-4.364-3.75-4.364-2.363 0-3.932 1.864-3.932 4.546 0 2.681 1.546 4.477 4.069 4.477zm-2.722-5.25c.09-1.358 1.051-2.568 2.585-2.568 1.455 0 2.387 1.091 2.387 2.568h-4.972zM85.071 152h1.34v-3.682h1.206L90.48 152h1.727l-3.568-4.523 3.523-4.204h-1.727l-3.137 3.795h-.886v-3.795H85.07V152zm11.78.182c1.932 0 3.204-1.182 3.432-2.727h-1.341c-.25.954-1.046 1.522-2.091 1.522-1.591 0-2.614-1.318-2.614-3.341 0-1.977 1.046-3.272 2.614-3.272 1.182 0 1.886.727 2.09 1.522h1.342c-.228-1.636-1.614-2.727-3.455-2.727-2.364 0-3.932 1.864-3.932 4.523 0 2.613 1.5 4.5 3.955 4.5zm-50.442 7.182V171h1.318v-8.841h.114L51.477 171h1.273l3.636-8.841h.114V171h1.318v-11.636h-1.682l-3.954 9.659h-.137l-3.954-9.659h-1.682zm16.62 11.841c1.524 0 2.319-.819 2.592-1.387h.068V171h1.34v-5.75c0-2.773-2.113-3.091-3.226-3.091-1.319 0-2.819.455-3.5 2.046l1.272.454c.296-.636.995-1.318 2.273-1.318 1.233 0 1.84.653 1.84 1.773v.045c0 .648-.658.591-2.25.796-1.618.21-3.385.568-3.385 2.568 0 1.704 1.318 2.682 2.977 2.682zm.205-1.205c-1.068 0-1.84-.477-1.84-1.409 0-1.023.931-1.341 1.977-1.477.568-.069 2.09-.228 2.318-.5v1.227c0 1.091-.864 2.159-2.455 2.159zm6.243 4.273h1.341v-4.614h.114c.295.477.864 1.523 2.545 1.523 2.182 0 3.705-1.75 3.705-4.523 0-2.75-1.523-4.5-3.728-4.5-1.704 0-2.227 1.046-2.522 1.5h-.16v-1.386h-1.295v12zm1.319-7.637c0-1.954.863-3.272 2.5-3.272 1.704 0 2.545 1.431 2.545 3.272 0 1.864-.864 3.341-2.545 3.341-1.614 0-2.5-1.363-2.5-3.341zM79.227 171h1.341v-3.682h1.205L84.636 171h1.728l-3.569-4.523 3.523-4.204h-1.727l-3.136 3.795h-.887v-3.795h-1.34V171zm11.894.182c1.773 0 3.068-.887 3.477-2.205l-1.295-.363c-.341.909-1.131 1.363-2.182 1.363-1.574 0-2.66-1.017-2.722-2.886h6.335v-.568c0-3.25-1.931-4.364-3.75-4.364-2.363 0-3.931 1.864-3.931 4.546 0 2.681 1.545 4.477 4.068 4.477zm-2.722-5.25c.091-1.358 1.051-2.568 2.585-2.568 1.455 0 2.387 1.091 2.387 2.568h-4.972zm7.563-2.409h2.886V171h1.341v-7.477h2.864v-1.25h-7.091v1.25z" fill="#3B3B3B"/></g><defs><clipPath id="clip0"><path fill="#fff" d="M0 0h220v236.5H0z"/></clipPath></defs></svg>