<svg width="24" height="24" fill="none" xmlns="http://www.w3.org/2000/svg"><g clip-path="url(#clip0)"><path d="M8.354 17.646l-2-2a.5.5 0 00-.757.054L.101 23.2a.5.5 0 00.7.7l7.5-5.5a.5.5 0 00.057-.757l-.004.003z" fill="#3B3B3B"/><path d="M14.854 14.146l-5-5A4.457 4.457 0 006.9 8.213a5.159 5.159 0 00-3.754 1.435c-.812.812-.728 2.067.25 3.73a21.893 21.893 0 003.25 3.976c1.99 1.988 4.5 4.054 6.33 4.054a1.871 1.871 0 001.377-.554c2.082-2.08 1.563-5.644.5-6.707z" fill="#F38704"/><path d="M18.854 10.147l-5-5a.5.5 0 00-.707 0l-4 4c-.654.654-.6 2.1 1.5 4.207 1.371 1.37 2.464 1.87 3.24 1.87.36.012.708-.121.967-.37l4-4a.5.5 0 000-.707z" fill="#FFBA45"/><path d="M23.962 8.81a.5.5 0 00-.462-.31c-1.084 0-3.464-1.171-5.146-2.853C16.672 3.965 15.5 1.586 15.5.5a.5.5 0 00-.854-.354c-2.042 2.043-2.68 5.527.5 8.707a6.686 6.686 0 004.72 2.209 5.657 5.657 0 003.987-1.71.5.5 0 00.109-.543z" fill="#F38704"/><path d="M20.854 3.147C18.736 1.03 16.82 0 15 0a.5.5 0 00-.5.5c0 1.493 1.412 4.119 3.146 5.854C19.38 8.09 22.008 9.5 23.5 9.5A.5.5 0 0024 9c0-1.822-1.03-3.737-3.146-5.854z" fill="#FFBA45"/></g><defs><clipPath id="clip0"><path fill="#fff" d="M0 0h24v24H0z"/></clipPath></defs></svg>