<svg width="458" height="375" fill="none" xmlns="http://www.w3.org/2000/svg"><g clip-path="url(#clip0)"><path d="M1.678 371.152h454.644M1.678 355.715h454.644M1.678 340.278h454.644M1.678 324.828h454.644M1.678 309.392h454.644M1.678 293.941h454.644M1.678 278.505h454.644M1.678 263.055h454.644M1.678 247.618h454.644M1.678 232.168h454.644M1.678 216.731h454.644M1.678 201.294h454.644M1.678 185.844h454.644M1.678 170.408h454.644M1.678 154.958h454.644M1.678 139.521h454.644M1.678 124.071h454.644M1.678 108.634h454.644M1.678 93.184h454.644M1.678 77.747h454.644M1.678 62.297h454.644M1.678 46.86h454.644M1.678 31.424h454.644M1.678 15.974h454.644M1.678.537h454.644" stroke="#E0E0E0" stroke-width=".79" stroke-linecap="round" stroke-linejoin="round"/><path d="M456.389 374.507H1.678a1.942 1.942 0 01-1.718-1.932 1.95 1.95 0 011.718-1.933h454.711a1.943 1.943 0 011.718 1.933 1.947 1.947 0 01-1.718 1.932z" fill="#3B3B3B"/><path d="M114.876 322.694L73.21 290.478l-41.665 32.216v48.324h83.331v-48.324z" fill="url(#paint0_linear)"/><path d="M215.859 258.263l-41.666-32.216-41.666 32.216v112.755h83.332V258.263z" fill="url(#paint1_linear)"/><path d="M316.842 226.047l-41.344-32.216-41.988 32.216v144.97h83.332v-144.97z" fill="url(#paint2_linear)"/><path d="M417.824 177.723l-41.665-32.215-41.666 32.215v193.295h83.331V177.723z" fill="url(#paint3_linear)"/><path d="M28.752 235.014s39.586-38.176 122.541-50.915c60.592-9.289 119.467-28.014 180.233-79.895 30.713-26.242 58.593-43.612 82.62-52.659" stroke="#BDBDBD" stroke-width="2" stroke-linecap="round" stroke-linejoin="round"/><path d="M70.62 215.55a7.383 7.383 0 100-14.766 7.383 7.383 0 000 14.766zm103.573-28.189a7.383 7.383 0 100-14.766 7.383 7.383 0 000 14.766zm99.64-35.907a7.383 7.383 0 100-14.766 7.383 7.383 0 000 14.766zm102.326-72.821a7.382 7.382 0 007.382-7.383 7.382 7.382 0 10-14.765 0 7.383 7.383 0 007.383 7.383z" fill="#FFBA45"/><path d="M94.033 219.482h-1.41l-2.908 1.932v1.432l2.84-1.886h.069v10.159h1.409v-11.637zm101.821-18.42h7.341v-1.25h-5.409v-.09l2.614-2.796c2-2.142 2.591-3.142 2.591-4.432 0-1.795-1.455-3.227-3.5-3.227-2.04 0-3.591 1.386-3.591 3.432h1.341c0-1.324.858-2.205 2.204-2.205 1.262 0 2.228.773 2.228 2 0 1.074-.631 1.87-1.978 3.341l-3.841 4.205v1.022zm102.689-34.191c2.255 0 3.931-1.414 3.931-3.318 0-1.477-.875-2.551-2.34-2.795v-.091c1.176-.358 1.909-1.324 1.909-2.636 0-1.648-1.302-3.114-3.455-3.114-2.011 0-3.682 1.239-3.75 3.068h1.364c.051-1.159 1.153-1.841 2.363-1.841 1.284 0 2.114.779 2.114 1.955 0 1.227-.96 2.022-2.341 2.022h-.932v1.25h.932c1.767 0 2.75.898 2.75 2.182 0 1.233-1.074 2.068-2.568 2.068-1.347 0-2.415-.693-2.5-1.818h-1.432c.085 1.83 1.699 3.068 3.955 3.068zm94.551-76.97h5.478v2.387h1.341V89.9h1.591v-1.25h-1.591v-8h-1.705l-5.114 8.091v1.16zm5.478-1.25h-3.955v-.09l3.864-6.114h.091v6.204z" fill="#3B3B3B"/></g><defs><linearGradient id="paint0_linear" x1="56.069" y1="302.331" x2="92.298" y2="396.441" gradientUnits="userSpaceOnUse"><stop stop-color="#FFBA45"/><stop offset="1" stop-color="#FF9800"/></linearGradient><linearGradient id="paint1_linear" x1="147.145" y1="243.672" x2="203.617" y2="391.85" gradientUnits="userSpaceOnUse"><stop stop-color="#FF9800"/><stop offset="1" stop-color="#F38704"/></linearGradient><linearGradient id="paint2_linear" x1="255.377" y1="232.611" x2="302.425" y2="389.219" gradientUnits="userSpaceOnUse"><stop stop-color="#FFBA45"/><stop offset="1" stop-color="#FF9800"/></linearGradient><linearGradient id="paint3_linear" x1="340.601" y1="172.408" x2="420.482" y2="401.421" gradientUnits="userSpaceOnUse"><stop stop-color="#FF9800"/><stop offset="1" stop-color="#F38704"/></linearGradient><clipPath id="clip0"><path fill="#fff" d="M0 0h458v374.494H0z"/></clipPath></defs></svg>