<svg width="100" height="107" fill="none" xmlns="http://www.w3.org/2000/svg"><path d="M50.01 41.257c-17.826 0-32.28-4.653-32.28-4.653l14.566 29.962s7.93 4.455 17.706 4.455c9.775 0 17.705-4.455 17.705-4.455l14.566-29.962s-14.445 4.653-32.262 4.653z" fill="#F98F02"/><path d="M50.01 73.974a39.413 39.413 0 01-14.561-2.931l14.562 29.965 14.565-29.965a39.418 39.418 0 01-14.565 2.931z" fill="#FFB43A"/><path d="M50.01 8.26C22.388 8.26 0 4.133 0 4.133l14.565 29.962s15.876 4.59 35.446 4.59 35.411-4.59 35.411-4.59L99.988 4.132S77.613 8.26 50.01 8.26z" fill="#FFA923"/><path d="M29.876 37.184a139.59 139.59 0 01-10.642-1.94L6.321 5.129a308.49 308.49 0 0014.817 1.74l8.738 30.316zM39.349 68.9a42.349 42.349 0 01-5.492-1.888L21 37c2.42.599 5.756 1.334 9.732 1.973L39.349 68.9zM50 101L37 72c1.518.494 3.065.906 4.631 1.233L50 101z" fill="#FAFAFA" opacity=".56"/><g style="mix-blend-mode:soft-light" opacity=".43"><path d="M57.877 73.06A36.84 36.84 0 0064.553 71L50 100.959l7.877-27.9zM81.874 37L67.313 66.959A38.924 38.924 0 0159 70.142l8.458-29.925c8.552-1.35 14.24-3.167 14.416-3.217z" fill="#3B3B3B" opacity=".43"/><path d="M100 4.129L85.422 34.094c-.192.053-6.383 1.82-15.711 3.145l8.567-30.315C91.402 5.717 100 4.129 100 4.129z" fill="#FFA821" opacity=".43"/></g><path d="M23.672 26h1.156l-3.344-4.484L24.72 18h-1.157l-3.203 3.469h-.422V18h-.968v8h.968v-3.672h.985L23.672 26zm4.28.125c1.625 0 2.719-1.234 2.719-3.094 0-1.875-1.094-3.11-2.719-3.11-1.625 0-2.719 1.235-2.719 3.11 0 1.86 1.094 3.094 2.72 3.094zm0-.828c-1.234 0-1.797-1.063-1.797-2.266s.563-2.281 1.797-2.281 1.797 1.078 1.797 2.281-.563 2.266-1.797 2.266zm4.126 2.953H33v-3.172h.078c.203.328.594 1.047 1.75 1.047 1.5 0 2.547-1.203 2.547-3.11 0-1.89-1.047-3.093-2.563-3.093-1.171 0-1.53.719-1.734 1.031h-.11V20h-.89v8.25zm.906-5.25c0-1.344.594-2.25 1.72-2.25 1.171 0 1.75.984 1.75 2.25 0 1.281-.595 2.297-1.75 2.297-1.11 0-1.72-.938-1.72-2.297zm5.422 1.469c.032.984.973 1.656 2.25 1.656 1.313 0 2.266-.703 2.266-1.797 0-.75-.45-1.36-1.125-1.406v-.063c.57-.175 1-.59 1-1.265 0-.95-.813-1.672-2.078-1.672-1.25 0-2.14.687-2.172 1.656h.969c.027-.496.547-.844 1.25-.844.699 0 1.093.356 1.093.891 0 .5-.343.875-1.078.875H39.75v.828h1.031c.735 0 1.203.402 1.203 1 0 .684-.605.969-1.343.969-.723 0-1.207-.285-1.25-.828h-.985zm6.733.172V20h-.922v6h1.078l2.875-4.64V26h.922v-6h-1.063l-2.89 4.64zM51.702 20h-.922v6h.922v-2.563h2.875V26h.922v-6h-.922v2.578h-2.875V20zm7.246 6.14c1.047 0 1.594-.562 1.782-.953h.046V26h.922v-3.953c0-1.906-1.453-2.125-2.218-2.125-.907 0-1.938.312-2.407 1.406l.875.313c.203-.438.684-.907 1.563-.907.847 0 1.265.45 1.265 1.22v.03c0 .446-.453.407-1.547.547-1.113.145-2.328.39-2.328 1.766 0 1.172.907 1.844 2.047 1.844zm.14-.828c-.733 0-1.265-.328-1.265-.968 0-.703.64-.922 1.36-1.016.39-.047 1.437-.156 1.593-.344v.844c0 .75-.593 1.485-1.687 1.485zm7.184-.953h3.765V26h.922v-1.64h1.094v-.86h-1.094V18h-1.172l-3.516 5.563v.796zm3.765-.859h-2.719v-.063l2.657-4.203h.062V23.5zm7.558 1c0 .875.547 1.61 1.562 1.61 1 0 1.547-.735 1.547-1.61v-.422c0-.875-.531-1.61-1.547-1.61-1 0-1.562.735-1.562 1.61v.422zm-3.985-4.578c0 .875.547 1.61 1.563 1.61 1 0 1.547-.735 1.547-1.61V19.5c0-.875-.531-1.61-1.547-1.61-1 0-1.563.735-1.563 1.61v.422zM73.907 26h.89l5.5-8h-.89l-5.5 8zm4.485-1.922c0-.484.218-.937.765-.937.563 0 .75.453.75.937v.422c0 .484-.203.938-.75.938-.562 0-.765-.454-.765-.938v-.422zM74.407 19.5c0-.484.219-.938.766-.938.562 0 .75.454.75.938v.422c0 .484-.203.937-.75.937-.563 0-.766-.453-.766-.937V19.5zM37.84 49c0-2.531-1.485-4.11-3.531-4.11-2.047 0-3.532 1.579-3.532 4.11 0 2.531 1.485 4.11 3.532 4.11 2.047 0 3.53-1.579 3.53-4.11zm-.938 0c0 2.078-1.14 3.203-2.593 3.203S31.715 51.078 31.715 49s1.14-3.203 2.594-3.203c1.453 0 2.593 1.125 2.593 3.203zm2.442 4h.922v-5.14h2.875V53h.922v-6h-4.72v6zm5.87 0h.313c1.328 0 1.711-1.031 1.797-3l.094-2.14h2.203V53h.922v-6h-4l-.11 2.656c-.078 2.016-.28 2.485-1 2.485h-.218V53zm8.786.14c1.047 0 1.594-.562 1.781-.953h.047V53h.922v-3.953c0-1.906-1.453-2.125-2.219-2.125-.906 0-1.937.312-2.406 1.406l.875.313c.203-.438.684-.907 1.563-.907.847 0 1.265.45 1.265 1.22v.03c0 .446-.453.407-1.547.547-1.113.145-2.328.39-2.328 1.766 0 1.172.906 1.844 2.047 1.844zm.14-.828c-.734 0-1.265-.328-1.265-.968 0-.703.64-.922 1.36-1.016.39-.047 1.437-.156 1.593-.344v.844c0 .75-.594 1.484-1.687 1.484zm3.476-4.453h1.985V53h.922v-5.14h1.968V47h-4.875v.86zm7.674 5.282c1.047 0 1.594-.563 1.781-.953h.047V53h.922v-3.953c0-1.906-1.453-2.125-2.219-2.125-.906 0-1.937.312-2.406 1.406l.875.313c.203-.438.684-.907 1.563-.907.847 0 1.265.45 1.265 1.22v.03c0 .446-.453.407-1.547.547-1.113.145-2.328.39-2.328 1.766 0 1.172.906 1.844 2.047 1.844zm.14-.828c-.734 0-1.265-.329-1.265-.97 0-.702.64-.921 1.36-1.015.39-.047 1.437-.156 1.593-.344v.844c0 .75-.594 1.484-1.687 1.484zM40.338 66.108c1.765 0 2.781-1.496 2.781-4.109 0-2.594-1.031-4.11-2.781-4.11-1.75 0-2.781 1.516-2.781 4.11 0 2.613 1.015 4.11 2.78 4.11zm0-.859c-1.164 0-1.844-1.168-1.844-3.25 0-2.078.688-3.266 1.844-3.266 1.156 0 1.844 1.188 1.844 3.266 0 2.082-.68 3.25-1.844 3.25zm5.377-.344h-1l-.047.438c-.113 1.058-.336 2.113-.438 2.61h.704c.187-.532.586-1.735.718-2.626l.063-.422zm4.07 1.203c1.616.02 2.671-1.199 2.671-2.687 0-1.547-1.145-2.656-2.515-2.656-.825 0-1.532.402-1.97 1.062h-.062c.004-1.95.762-3.078 2-3.078.844 0 1.352.531 1.532 1.25h.953c-.196-1.242-1.141-2.11-2.485-2.11-1.8 0-2.906 1.594-2.906 4.422 0 2.957 1.469 3.782 2.781 3.797zm0-.859c-1.005 0-1.74-.856-1.735-1.813.004-.956.773-1.812 1.766-1.812.98 0 1.703.805 1.703 1.797 0 1.016-.754 1.828-1.735 1.828zm8.285-.75c0 .875.547 1.61 1.563 1.61 1 0 1.547-.735 1.547-1.61v-.422c0-.875-.532-1.61-1.547-1.61-1 0-1.563.735-1.563 1.61v.422zm-3.984-4.578c0 .875.547 1.61 1.563 1.61 1 0 1.546-.735 1.546-1.61V59.5c0-.875-.53-1.61-1.547-1.61-1 0-1.562.735-1.562 1.61v.422zM54.382 66h.89l5.5-8h-.89l-5.5 8zm4.484-1.922c0-.484.219-.937.766-.937.562 0 .75.453.75.937v.422c0 .484-.203.938-.75.938-.563 0-.766-.454-.766-.938v-.422zM54.882 59.5c0-.484.219-.938.766-.938.562 0 .75.454.75.938v.422c0 .484-.204.937-.75.937-.563 0-.766-.453-.766-.937V59.5z" fill="#000"/></svg>