<svg width="150" height="160" fill="none" xmlns="http://www.w3.org/2000/svg"><g clip-path="url(#clip0)"><path d="M74.71 67.94C48.362 67.94 27 61 27 61l21.54 44.521s11.726 6.618 26.17 6.618c14.443 0 26.168-6.618 26.168-6.618L122.405 61s-21.343 6.94-47.695 6.94z" fill="#FF9800"/><path d="M62.84 81c0-2.531-1.485-4.11-3.531-4.11-2.047 0-3.532 1.579-3.532 4.11 0 2.531 1.485 4.11 3.532 4.11 2.047 0 3.53-1.579 3.53-4.11zm-.938 0c0 2.078-1.14 3.203-2.593 3.203S56.715 83.078 56.715 81s1.14-3.203 2.594-3.203c1.453 0 2.593 1.125 2.593 3.203zm2.442 4h.922v-5.14h2.875V85h.921v-6h-4.718v6zm5.87 0h.313c1.329 0 1.711-1.031 1.797-3l.094-2.14h2.203V85h.922v-6h-4l-.11 2.656c-.078 2.016-.28 2.485-1 2.485h-.218V85zm8.786.14c1.047 0 1.594-.562 1.781-.953h.047V85h.922v-3.953c0-1.906-1.453-2.125-2.219-2.125-.906 0-1.937.312-2.406 1.406l.875.313c.203-.438.684-.907 1.563-.907.847 0 1.265.45 1.265 1.22v.03c0 .446-.453.407-1.547.547-1.113.145-2.328.39-2.328 1.766 0 1.172.906 1.844 2.047 1.844zm.14-.828c-.734 0-1.265-.328-1.265-.968 0-.703.64-.922 1.36-1.016.39-.047 1.437-.156 1.593-.344v.844c0 .75-.594 1.484-1.687 1.484zm3.476-4.453h1.985V85h.921v-5.14h1.97V79h-4.876v.86zm7.674 5.282c1.047 0 1.594-.563 1.781-.954h.047V85h.922v-3.953c0-1.906-1.453-2.125-2.219-2.125-.906 0-1.937.312-2.406 1.406l.875.313c.203-.438.684-.907 1.563-.907.847 0 1.265.45 1.265 1.22v.03c0 .446-.453.407-1.547.547-1.113.145-2.328.39-2.328 1.766 0 1.172.906 1.844 2.047 1.844zm.14-.829c-.734 0-1.265-.328-1.265-.968 0-.703.64-.922 1.36-1.016.39-.047 1.437-.156 1.593-.344v.844c0 .75-.594 1.484-1.687 1.484zM67.53 98h5.046v-.86h-3.719v-.062l1.797-1.922c1.375-1.472 1.782-2.16 1.782-3.047 0-1.234-1-2.218-2.407-2.218-1.402 0-2.468.953-2.468 2.359h.921c0-.91.59-1.516 1.516-1.516.867 0 1.531.532 1.531 1.375 0 .739-.433 1.285-1.36 2.297l-2.64 2.89V98zm10.738-1.5c0 .875.546 1.61 1.562 1.61 1 0 1.547-.735 1.547-1.61v-.422c0-.875-.531-1.61-1.547-1.61-1 0-1.562.735-1.562 1.61v.422zm-3.985-4.578c0 .875.547 1.61 1.563 1.61 1 0 1.547-.735 1.547-1.61V91.5c0-.875-.532-1.61-1.547-1.61-1 0-1.563.735-1.563 1.61v.422zM74.58 98h.89l5.5-8h-.89l-5.5 8zm4.484-1.922c0-.484.22-.937.766-.937.563 0 .75.453.75.937v.422c0 .484-.203.938-.75.938-.562 0-.766-.454-.766-.938v-.422zM75.08 91.5c0-.484.219-.938.766-.938.562 0 .75.454.75.938v.422c0 .484-.203.937-.75.937-.563 0-.766-.453-.766-.937V91.5z" fill="#000"/><path d="M122.631 61.316s-21.362 6.941-47.714 6.941c-26.353 0-47.71-6.94-47.71-6.94s21.362-6.937 47.71-6.937c26.347 0 47.714 6.936 47.714 6.936z" fill="#00695C"/><path d="M96.444 115.479a57.998 57.998 0 01-21.527 4.355 57.974 57.974 0 01-21.523-4.355 57.935 57.935 0 0121.523-4.36 57.939 57.939 0 0121.527 4.36z" fill="#C5CDD8"/><path d="M74.917 119.834a57.994 57.994 0 01-21.523-4.355l21.523 44.516 21.527-44.516a57.998 57.998 0 01-21.527 4.355z" fill="#FFBA45"/><path d="M122.631 61.316s-21.362 6.941-47.714 6.941c-26.353 0-47.71-6.94-47.71-6.94s21.362-6.937 47.71-6.937c26.347 0 47.714 6.936 47.714 6.936z" fill="#C5CDD8"/><path d="M148.831 7.158s-33.087 6.14-73.914 6.14c-40.828 0-73.915-6.14-73.915-6.14s33.082-6.134 73.915-6.134c40.832 0 73.914 6.134 73.914 6.134z" fill="#B71C1C"/><path d="M148.831 7.158s-33.087 6.14-73.914 6.14c-40.828 0-73.915-6.14-73.915-6.14s33.082-6.134 73.915-6.134c40.832 0 73.914 6.134 73.914 6.134z" fill="#C5CDD8"/><path d="M74.915 13.139C34.1 13.139 1 7 1 7l21.527 44.521s23.465 6.816 52.388 6.816 52.374-6.816 52.374-6.816L148.83 7s-33.101 6.139-73.915 6.139z" fill="#F38704"/><path d="M48.956 37h1.156l-3.344-4.484L50.002 29h-1.156l-3.203 3.469h-.422V29h-.969v8h.97v-3.672h.984L48.956 37zm4.28.125c1.625 0 2.719-1.234 2.719-3.094 0-1.875-1.094-3.11-2.72-3.11-1.624 0-2.718 1.235-2.718 3.11 0 1.86 1.094 3.094 2.719 3.094zm0-.828c-1.234 0-1.797-1.063-1.797-2.266s.563-2.281 1.797-2.281 1.797 1.078 1.797 2.281-.563 2.266-1.797 2.266zm4.126 2.953h.922v-3.172h.078c.203.328.594 1.047 1.75 1.047 1.5 0 2.547-1.203 2.547-3.11 0-1.89-1.047-3.093-2.563-3.093-1.172 0-1.531.719-1.734 1.031h-.11V31h-.89v8.25zm.906-5.25c0-1.344.594-2.25 1.719-2.25 1.172 0 1.75.984 1.75 2.25 0 1.281-.594 2.297-1.75 2.297-1.11 0-1.719-.938-1.719-2.297zm5.422 1.469c.031.984.973 1.656 2.25 1.656 1.312 0 2.266-.703 2.266-1.797 0-.75-.45-1.36-1.125-1.406v-.063c.57-.175 1-.59 1-1.265 0-.95-.813-1.672-2.079-1.672-1.25 0-2.14.687-2.171 1.656h.968c.028-.496.547-.844 1.25-.844.7 0 1.094.356 1.094.891 0 .5-.344.875-1.078.875h-1.031v.828h1.03c.735 0 1.204.402 1.204 1 0 .684-.605.969-1.344.969-.722 0-1.207-.285-1.25-.828h-.984zm6.732.172V31h-.921v6h1.078l2.875-4.64V37h.922v-6h-1.063l-2.89 4.64zM76.986 31h-.922v6h.922v-2.563h2.875V37h.922v-6h-.922v2.578h-2.875V31zm7.246 6.14c1.047 0 1.594-.562 1.781-.953h.047V37h.922v-3.953c0-1.906-1.453-2.125-2.219-2.125-.906 0-1.937.312-2.406 1.406l.875.313c.203-.438.683-.907 1.562-.907.848 0 1.266.45 1.266 1.22v.03c0 .446-.453.407-1.547.547-1.113.145-2.328.39-2.328 1.766 0 1.172.906 1.844 2.047 1.844zm.14-.828c-.734 0-1.265-.328-1.265-.968 0-.703.64-.922 1.36-1.016.39-.047 1.437-.156 1.593-.344v.844c0 .75-.594 1.484-1.687 1.484zm9.918-7.421c-1.625-.02-2.672 1.203-2.672 2.672 0 1.546 1.14 2.656 2.515 2.656a2.33 2.33 0 001.97-1.063h.062c0 1.969-.766 3.094-2 3.094-.844 0-1.36-.531-1.532-1.266h-.953c.188 1.266 1.14 2.125 2.485 2.125 1.796 0 2.906-1.593 2.906-4.437 0-2.938-1.469-3.766-2.781-3.781zm0 .859c1 0 1.734.86 1.734 1.797 0 .953-.781 1.812-1.766 1.812-.984 0-1.703-.797-1.703-1.797 0-1 .75-1.812 1.735-1.812zm8.395 5.75c0 .875.547 1.61 1.563 1.61 1 0 1.546-.735 1.546-1.61v-.422c0-.875-.531-1.61-1.546-1.61-1 0-1.563.735-1.563 1.61v.422zm-3.984-4.578c0 .875.547 1.61 1.562 1.61 1 0 1.547-.735 1.547-1.61V30.5c0-.875-.531-1.61-1.547-1.61-1 0-1.562.735-1.562 1.61v.422zM98.998 37h.89l5.5-8h-.89l-5.5 8zm4.484-1.922c0-.484.219-.937.766-.937.562 0 .75.453.75.937v.422c0 .484-.204.938-.75.938-.563 0-.766-.454-.766-.938v-.422zM99.498 30.5c0-.484.218-.938.765-.938.563 0 .75.454.75.938v.422c0 .484-.203.937-.75.937-.562 0-.765-.453-.765-.937V30.5z" fill="#000"/><path d="M45.176 56.27a205.362 205.362 0 01-15.728-2.88L10.363 8.642a452.736 452.736 0 0021.899 2.585L45.176 56.27zm15.541 54.213a62.419 62.419 0 01-8.117-2.807l-19.002-44.59c3.576.89 8.507 1.982 14.383 2.931l12.736 44.466zM74.917 160l-18.493-43.359c2.16.738 4.36 1.353 6.588 1.843L74.917 160z" fill="#FAFAFA" opacity=".56"/><path d="M86.578 118.539a54.253 54.253 0 009.866-3.06L74.917 160l11.66-41.461zm36.048-57.213l-21.541 44.512a57.339 57.339 0 01-12.285 4.728l12.52-44.438c12.643-2.028 21.045-4.72 21.306-4.802zm26.205-54.168L127.304 51.68c-.284.079-9.434 2.706-23.221 4.674l12.667-45.047c19.36-1.788 32.081-4.148 32.081-4.148z" fill="#3B3B3B" opacity=".43"/></g><defs><clipPath id="clip0"><path fill="#fff" d="M0 0h150v160H0z"/></clipPath></defs></svg>